<svg width="211" height="102" viewBox="0 0 211 102" fill="none" xmlns="http://www.w3.org/2000/svg">
<path d="M31.4463 80H21.6904V15.1807H31.4463V42.7344H65.8555V15.1807H75.5674V80H65.8555V52.4463H31.4463V80ZM111.207 60.4443C107.984 60.4443 104.952 59.8291 102.11 58.5986C99.2979 57.3682 96.8369 55.6982 94.7275 53.5889C92.6182 51.4795 90.9482 49.0186 89.7178 46.2061C88.4873 43.3643 87.8721 40.332 87.8721 37.1094C87.8721 33.8867 88.4873 30.8545 89.7178 28.0127C90.9482 25.1709 92.6182 22.6953 94.7275 20.5859C96.8369 18.4766 99.2979 16.8066 102.11 15.5762C104.952 14.3457 107.984 13.7305 111.207 13.7305C113.639 13.7305 115.968 14.082 118.194 14.7852C120.421 15.4883 122.457 16.4844 124.303 17.7734C126.178 19.0332 127.833 20.5566 129.269 22.3438C130.733 24.1016 131.905 26.0352 132.784 28.1445L123.819 31.8799C123.292 30.6494 122.604 29.5215 121.754 28.4961C120.934 27.4414 119.967 26.5479 118.854 25.8154C117.77 25.0537 116.568 24.4678 115.25 24.0576C113.961 23.6475 112.613 23.4424 111.207 23.4424C109.332 23.4424 107.56 23.8086 105.89 24.541C104.249 25.2441 102.813 26.2109 101.583 27.4414C100.353 28.6719 99.3711 30.1221 98.6387 31.792C97.9355 33.4619 97.584 35.2344 97.584 37.1094C97.584 38.9844 97.9355 40.7568 98.6387 42.4268C99.3711 44.0674 100.353 45.5029 101.583 46.7334C102.813 47.9639 104.249 48.9453 105.89 49.6777C107.56 50.3809 109.332 50.7324 111.207 50.7324V60.4443ZM111.207 81.4502C108.775 81.4502 106.446 81.0986 104.22 80.3955C101.993 79.6924 99.9424 78.7109 98.0674 77.4512C96.1924 76.1621 94.5371 74.6387 93.1016 72.8809C91.666 71.0938 90.5088 69.1455 89.6299 67.0361L98.5947 63.3008C99.1221 64.5312 99.8105 65.6738 100.66 66.7285C101.51 67.7539 102.477 68.6475 103.561 69.4092C104.674 70.1416 105.875 70.7129 107.164 71.123C108.453 71.5332 109.801 71.7383 111.207 71.7383C113.082 71.7383 114.854 71.3867 116.524 70.6836C118.194 69.9512 119.645 68.9697 120.875 67.7393C122.105 66.5088 123.072 65.0732 123.775 63.4326C124.508 61.7627 124.874 59.9902 124.874 58.1152C124.874 56.2402 124.508 54.4678 123.775 52.7979C123.072 51.1279 122.105 49.6777 120.875 48.4473C119.645 47.2168 118.194 46.25 116.524 45.5469C114.854 44.8145 113.082 44.4482 111.207 44.4482V34.7363C114.43 34.7363 117.462 35.3516 120.304 36.582C123.146 37.8125 125.621 39.4824 127.73 41.5918C129.84 43.7012 131.51 46.1768 132.74 49.0186C133.971 51.8604 134.586 54.8926 134.586 58.1152C134.586 61.3379 133.971 64.3701 132.74 67.2119C131.51 70.0244 129.84 72.4854 127.73 74.5947C125.621 76.7041 123.146 78.374 120.304 79.6045C117.462 80.835 114.43 81.4502 111.207 81.4502ZM172.555 81.4502C169.684 81.4502 166.915 81.1133 164.249 80.4395C161.583 79.7656 159.063 78.7842 156.69 77.4951V80H146.935V15.1807H156.69V17.6855C159.063 16.4258 161.583 15.459 164.249 14.7852C166.915 14.082 169.684 13.7305 172.555 13.7305C175.66 13.7305 178.648 14.1406 181.52 14.9609C184.42 15.752 187.115 16.8799 189.605 18.3447C192.125 19.8096 194.41 21.582 196.461 23.6621C198.541 25.7129 200.313 27.998 201.778 30.5176C203.243 33.0078 204.371 35.7031 205.162 38.6035C205.982 41.5039 206.393 44.5068 206.393 47.6123C206.393 50.7178 205.982 53.7207 205.162 56.6211C204.371 59.4922 203.243 62.1875 201.778 64.707C200.313 67.1973 198.541 69.4824 196.461 71.5625C194.41 73.6133 192.125 75.3711 189.605 76.8359C187.115 78.3008 184.42 79.4287 181.52 80.2197C178.648 81.04 175.66 81.4502 172.555 81.4502ZM160.47 68.5303C162.257 69.5557 164.161 70.3467 166.183 70.9033C168.233 71.46 170.357 71.7383 172.555 71.7383C175.895 71.7383 179.029 71.1084 181.959 69.8486C184.889 68.5889 187.438 66.875 189.605 64.707C191.803 62.5098 193.531 59.9463 194.791 57.0166C196.051 54.0869 196.681 50.9521 196.681 47.6123C196.681 44.2725 196.051 41.1377 194.791 38.208C193.531 35.2783 191.803 32.7148 189.605 30.5176C187.438 28.3203 184.889 26.5918 181.959 25.332C179.029 24.0723 175.895 23.4424 172.555 23.4424C170.357 23.4424 168.233 23.7207 166.183 24.2773C164.161 24.834 162.271 25.625 160.514 26.6504L156.69 20.1465V75.0781L160.47 68.5303Z" fill="white"/>
<path d="M22 63.3599L22 66.0576L9.40234 66.0576L17.4956 70.1104L17.4956 73.1133L9.40234 77.1538L22 77.1538L22 79.8638L3.99463 79.8638L3.99463 76.8608L14.5049 71.6118L3.99463 66.3628L3.99463 63.3599L22 63.3599ZM22 58.062L15.2495 54.6929L3.99463 60.3081L3.99463 57.3174L12.2466 53.1914L3.99463 49.0654L3.99463 46.0625L22 55.0591L22 58.062Z" fill="white"/>
</svg>
